<svg width="411" height="110" viewBox="0 0 411 110" fill="none" xmlns="http://www.w3.org/2000/svg">
<path d="M3.32666 63.9984C5.76867 57.2829 15.2681 42.0937 32.2644 36.5259C24.6454 43.8519 9.67588 58.0155 3.32666 63.9984Z" fill="#FFF8D8" stroke="black" stroke-width="0.1"/>
<path d="M29.7666 106.472C29.7666 106.92 27.0146 107.144 21.5106 107.144C16.0706 107.144 13.3506 106.92 13.3506 106.472V57.032H10.0866C8.55064 57.032 7.49464 55.624 6.91864 52.808C6.72664 51.912 6.63064 50.76 6.63064 49.352C6.63064 47.944 7.07864 46.28 7.97464 44.36C9.25464 41.544 11.3026 40.136 14.1186 40.136C15.9746 40.136 17.6706 40.584 19.2066 41.48C20.8066 42.312 21.8946 43.112 22.4706 43.88C23.1106 44.584 23.4306 45 23.4306 45.128C27.7186 41.8 32.3586 40.136 37.3506 40.136C42.3426 40.136 46.6306 42.088 50.2146 45.992C53.7986 49.832 55.5906 55.816 55.5906 63.944C55.5906 72.008 53.7986 78.28 50.2146 82.76C46.6306 87.176 42.0866 89.384 36.5826 89.384C34.0866 89.384 31.8146 89.256 29.7666 89V106.472ZM33.7026 56.936C32.6146 56.936 31.5586 57.288 30.5346 57.992V74.984C31.6226 75.112 32.4866 75.176 33.1266 75.176C33.8306 75.176 34.3746 75.176 34.7586 75.176C37.3826 74.92 38.6946 71.56 38.6946 65.096C38.6946 59.656 37.0306 56.936 33.7026 56.936ZM83.4006 88.904C83.4006 89.352 80.4886 89.576 74.6646 89.576C68.8406 89.448 65.9286 89.192 65.9286 88.808V56.936H63.3366C62.3126 56.936 61.4806 56.328 60.8406 55.112C60.2646 53.832 59.9766 52.264 59.9766 50.408C59.9766 43.496 62.0246 40.04 66.1206 40.04C69.0006 40.04 71.4006 40.936 73.3206 42.728C75.2406 44.456 76.2006 46.44 76.2006 48.68C77.5446 46.056 79.3366 43.976 81.5766 42.44C83.8806 40.84 86.2166 40.04 88.5846 40.04C92.2966 40.04 94.5366 41 95.3046 42.92C95.4966 43.432 95.5926 44.2 95.5926 45.224C95.5926 46.184 95.2726 47.944 94.6326 50.504C94.0566 53.064 93.4486 54.92 92.8086 56.072C92.1686 57.224 91.7846 57.8 91.6566 57.8C91.5286 57.8 90.9206 57.576 89.8326 57.128C88.8086 56.616 87.8806 56.36 87.0486 56.36C84.6166 56.36 83.4006 58.28 83.4006 62.12V88.904ZM136.727 86.408C132.695 88.776 127.511 89.96 121.175 89.96C114.839 89.96 109.495 87.816 105.143 83.528C100.791 79.176 98.6151 73.192 98.6151 65.576C98.6151 57.896 100.695 51.72 104.855 47.048C109.079 42.376 114.391 40.04 120.791 40.04C127.191 40.04 132.119 41.672 135.575 44.936C139.095 48.2 140.855 52.168 140.855 56.84C140.855 67.208 134.903 72.392 122.999 72.392H116.375C116.375 74.312 116.887 75.656 117.911 76.424C118.999 77.128 120.567 77.48 122.615 77.48C127.095 77.48 131.351 76.456 135.383 74.408C135.447 74.344 135.735 74.792 136.247 75.752C137.783 78.504 138.551 80.84 138.551 82.76C138.551 84.616 137.943 85.832 136.727 86.408ZM124.727 58.664C124.727 55.976 123.415 54.632 120.791 54.632C119.575 54.632 118.519 55.016 117.623 55.784C116.791 56.488 116.375 57.544 116.375 58.952V61.928H121.559C123.671 61.928 124.727 60.84 124.727 58.664ZM149.143 71.72C154.327 74.856 158.423 76.424 161.431 76.424C163.351 76.424 164.311 75.752 164.311 74.408C164.311 73.448 162.647 72.2 159.319 70.664C151.319 67.4 147.319 62.056 147.319 54.632C147.319 49.896 149.047 46.28 152.503 43.784C155.959 41.288 160.087 40.04 164.887 40.04C169.751 40.04 173.847 40.552 177.175 41.576C180.567 42.6 182.263 43.944 182.263 45.608C182.263 47.016 181.559 48.872 180.151 51.176C178.807 53.48 177.879 54.728 177.367 54.92C174.615 53.384 171.639 52.616 168.439 52.616C166.711 52.616 165.847 53.224 165.847 54.44C165.847 55.208 166.167 55.88 166.807 56.456C167.511 56.968 168.759 57.64 170.551 58.472C172.343 59.24 173.815 59.944 174.967 60.584C176.183 61.224 177.527 62.12 178.999 63.272C182.071 65.704 183.607 68.872 183.607 72.776C183.607 77.896 181.911 82.056 178.519 85.256C175.127 88.392 170.007 89.96 163.159 89.96C158.615 89.96 154.487 89.192 150.775 87.656C147.063 86.12 145.207 84.008 145.207 81.32C145.207 79.528 145.623 77.64 146.455 75.656C147.351 73.672 148.247 72.36 149.143 71.72ZM192.361 71.72C197.545 74.856 201.641 76.424 204.649 76.424C206.569 76.424 207.529 75.752 207.529 74.408C207.529 73.448 205.865 72.2 202.537 70.664C194.537 67.4 190.537 62.056 190.537 54.632C190.537 49.896 192.265 46.28 195.721 43.784C199.177 41.288 203.305 40.04 208.105 40.04C212.969 40.04 217.065 40.552 220.393 41.576C223.785 42.6 225.481 43.944 225.481 45.608C225.481 47.016 224.777 48.872 223.369 51.176C222.025 53.48 221.097 54.728 220.585 54.92C217.833 53.384 214.857 52.616 211.657 52.616C209.929 52.616 209.065 53.224 209.065 54.44C209.065 55.208 209.385 55.88 210.025 56.456C210.729 56.968 211.977 57.64 213.769 58.472C215.561 59.24 217.033 59.944 218.185 60.584C219.401 61.224 220.745 62.12 222.217 63.272C225.289 65.704 226.825 68.872 226.825 72.776C226.825 77.896 225.129 82.056 221.737 85.256C218.345 88.392 213.225 89.96 206.377 89.96C201.833 89.96 197.705 89.192 193.993 87.656C190.281 86.12 188.425 84.008 188.425 81.32C188.425 79.528 188.841 77.64 189.673 75.656C190.569 73.672 191.465 72.36 192.361 71.72ZM242.396 89.192C236.572 89.192 233.66 88.552 233.66 87.272V25.064C233.66 22.888 234.652 21.8 236.636 21.8H253.532C263.004 21.8 269.82 23.752 273.98 27.656C278.204 31.56 280.316 37.224 280.316 44.648C280.316 50.792 278.332 56.424 274.364 61.544C272.38 64.104 269.468 66.152 265.628 67.688C261.788 69.224 257.308 69.992 252.188 69.992V87.176C252.188 87.944 250.972 88.488 248.54 88.808C246.172 89.064 244.124 89.192 242.396 89.192ZM252.188 38.504V53.672H253.436C255.676 53.672 257.564 52.968 259.1 51.56C260.636 50.152 261.404 48.168 261.404 45.608C261.404 43.048 260.86 41.224 259.772 40.136C258.748 39.048 256.892 38.504 254.204 38.504H252.188ZM291.925 54.152C290.133 50.952 289.237 48.36 289.237 46.376C289.237 44.328 289.781 43.016 290.869 42.44C294.517 40.84 299.509 40.04 305.845 40.04C312.245 40.04 316.757 41.544 319.381 44.552C322.005 47.496 323.317 51.88 323.317 57.704V72.872H326.581C327.669 72.872 328.501 73.512 329.077 74.792C329.717 76.072 330.037 77.832 330.037 80.072C330.037 82.312 329.461 84.52 328.309 86.696C327.221 88.872 325.717 89.96 323.797 89.96C320.341 89.96 317.557 89.032 315.445 87.176C314.485 86.408 313.749 85.48 313.237 84.392C310.293 88.104 305.717 89.96 299.509 89.96C294.837 89.96 290.901 88.296 287.701 84.968C284.501 81.64 282.901 77.704 282.901 73.16C282.901 62.728 289.141 57.512 301.621 57.512H306.901V56.552C306.901 54.888 306.613 53.832 306.037 53.384C305.525 52.872 304.277 52.616 302.293 52.616C299.861 52.616 296.405 53.128 291.925 54.152ZM299.605 71.816C299.605 73.224 299.989 74.312 300.757 75.08C301.525 75.784 302.485 76.136 303.637 76.136C304.853 76.136 305.941 75.656 306.901 74.696V67.304H304.213C301.141 67.304 299.605 68.808 299.605 71.816ZM332.11 41.48C332.11 40.776 335.022 40.424 340.846 40.424C346.734 40.424 349.774 40.744 349.966 41.384L356.878 64.04L363.502 41.192C363.758 40.68 365.742 40.424 369.454 40.424C377.966 40.424 382.03 40.84 381.646 41.672L359.086 105.896C359.022 106.28 357.262 106.472 353.806 106.472C350.414 106.472 347.246 106.344 344.302 106.088C341.358 105.896 339.95 105.64 340.078 105.32L348.43 85.16L332.11 41.48ZM402.873 68.84C402.873 69.224 400.569 69.416 395.961 69.416C391.417 69.416 389.145 69.256 389.145 68.936L387.225 21.608C387.225 21.096 390.137 20.84 395.961 20.84C401.849 20.84 404.793 21.064 404.793 21.512L402.873 68.84ZM387.033 74.6C387.033 74.152 389.977 73.928 395.865 73.928C401.817 73.928 404.793 74.12 404.793 74.504V88.328C404.793 88.968 401.817 89.288 395.865 89.288C389.977 89.288 387.033 89.096 387.033 88.712V74.6Z" fill="#0094FF"/>
<path d="M32.4315 36.3087L5.57989 35.7805L2.91565 64.1586C11.6232 48.319 17.9119 41.915 32.4315 36.3087Z" fill="#E3DAAD" stroke="black" stroke-width="0.1"/>
<path d="M32.4315 36.3087L5.57989 35.7805L2.91565 64.1586C11.6232 48.319 17.9119 41.915 32.4315 36.3087Z" fill="#E3DAAD" stroke="black" stroke-width="0.1"/>
<path d="M5.52444 35.8508L6.98964 57.0387" stroke="black" stroke-width="0.1"/>
<path d="M5.68458 35.9373L12.1457 50.0866" stroke="black" stroke-width="0.1"/>
<path d="M5.52502 35.7492L15.8661 46.0363" stroke="black" stroke-width="0.1"/>
<path d="M5.52478 35.9809L19.9396 42.6726" stroke="black" stroke-width="0.1"/>
<path d="M5.60091 35.9202L27.6241 38.4017" stroke="black" stroke-width="0.1"/>
<path d="M30.0667 37.6248C29.9446 47.0265 24.7919 64.9508 5.1582 61.4343" stroke="#FF1717" stroke-width="0.5"/>
</svg>
